<svg width="12" height="8" viewBox="0 0 12 8" fill="none" xmlns="http://www.w3.org/2000/svg">
<path d="M6.37383 7.81106L11.8574 1.02225C11.9489 0.908977 12 0.758483 12 0.601985C12 0.445487 11.9489 0.294995 11.8574 0.18172L11.8512 0.174411C11.8068 0.119307 11.7534 0.0754294 11.6942 0.0454459C11.635 0.0154624 11.5712 4.76837e-07 11.5068 4.76837e-07C11.4424 4.76837e-07 11.3786 0.0154624 11.3194 0.0454459C11.2602 0.0754294 11.2068 0.119307 11.1624 0.174411L5.99897 6.56732L0.837607 0.174411C0.79323 0.119307 0.739813 0.0754294 0.680606 0.0454459C0.621399 0.0154624 0.55764 4.76837e-07 0.493207 4.76837e-07C0.428775 4.76837e-07 0.365016 0.0154624 0.305809 0.0454459C0.246602 0.0754294 0.193185 0.119307 0.148807 0.174411L0.142611 0.18172C0.0510683 0.294995 9.53674e-07 0.445487 9.53674e-07 0.601985C9.53674e-07 0.758483 0.0510683 0.908977 0.142611 1.02225L5.62617 7.81106C5.67439 7.87077 5.73239 7.9183 5.79665 7.95078C5.86091 7.98325 5.93009 8 6 8C6.06991 8 6.13909 7.98325 6.20335 7.95078C6.26761 7.9183 6.32561 7.87077 6.37383 7.81106Z" fill="#1D1D1D"/>
</svg>
