<svg width="37" height="63" viewBox="0 0 37 63" fill="none" xmlns="http://www.w3.org/2000/svg">
<path d="M0.160558 56.6794C-0.113442 57.0586 -0.0281839 57.5881 0.350987 57.8621L6.52993 62.3272C6.90911 62.6012 7.4386 62.5159 7.71261 62.1368C7.98661 61.7576 7.90134 61.2281 7.52218 60.9541L2.02978 56.9851L5.99874 51.4927C6.27274 51.1136 6.18748 50.584 5.80831 50.3101C5.42914 50.0361 4.89964 50.1213 4.62564 50.5005L0.160558 56.6794ZM20.3582 2.02013C32.0866 8.19296 36.9218 20.1648 34.0254 31.3615C31.1321 42.5461 20.4521 53.1609 0.712453 56.3393L0.981762 58.0118C21.2226 54.7527 32.5659 43.7678 35.6654 31.7857C38.7619 19.8157 33.5596 7.05384 21.1471 0.520996L20.3582 2.02013Z" fill="#1D1D1D"/>
</svg>
