<svg width="48" height="54" viewBox="0 0 48 54" fill="none" xmlns="http://www.w3.org/2000/svg">
<path d="M47.3775 45.6464C47.7646 45.9091 47.8654 46.4359 47.6027 46.823L43.3212 53.1306C43.0585 53.5177 42.5317 53.6184 42.1447 53.3557C41.7576 53.093 41.6568 52.5662 41.9195 52.1791L45.7253 46.5724L40.1185 42.7667C39.7315 42.504 39.6306 41.9772 39.8934 41.5902C40.1561 41.2031 40.6829 41.1022 41.0699 41.365L47.3775 45.6464ZM9.71936 1.17793C0.806007 10.9866 0.352402 23.8901 6.90017 33.4233C13.4409 42.9461 27.105 49.2729 46.7426 45.5153L47.061 47.1792C26.9247 51.0322 12.5108 44.5842 5.50377 34.3823C-1.49627 24.1907 -0.96757 10.4194 8.46567 0.038591L9.71936 1.17793Z" fill="#1D1D1D"/>
</svg>
