<svg width="150" height="150" viewBox="0 0 150 150" fill="none" xmlns="http://www.w3.org/2000/svg">
<path d="M82.7101 0.00922765C88.1828 -0.0117733 93.6555 0.0432307 99.1267 0.174223L100.582 0.226721C102.262 0.286719 103.919 0.361716 105.921 0.451713C113.901 0.8267 119.346 2.08666 124.123 3.9391C129.073 5.84403 133.243 8.42394 137.412 12.5938C141.225 16.3407 144.176 20.8731 146.059 25.8758C147.912 30.6532 149.172 36.1055 149.547 44.0852C149.637 46.0802 149.712 47.7451 149.772 49.425L149.817 50.88C149.95 56.3488 150.007 61.8191 149.989 67.2894L149.997 72.8843V82.7089C150.015 88.1818 149.958 93.6546 149.824 99.1259L149.779 100.581C149.719 102.261 149.644 103.918 149.554 105.921C149.179 113.9 147.904 119.345 146.059 124.123C144.182 129.131 141.23 133.667 137.412 137.412C133.662 141.224 129.128 144.175 124.123 146.059C119.346 147.912 113.901 149.172 105.921 149.547C103.919 149.637 102.262 149.712 100.582 149.772L99.1267 149.817C93.6556 149.95 88.1828 150.007 82.7101 149.989L77.1154 149.997H67.2984C61.8256 150.015 56.3529 149.958 50.8817 149.824L49.4268 149.779C47.6465 149.715 45.8665 149.64 44.0871 149.554C36.1075 149.179 30.6628 147.904 25.878 146.059C20.8734 144.179 16.3403 141.228 12.5962 137.412C8.77922 133.664 5.82571 129.129 3.94163 124.123C2.08922 119.345 0.829284 113.9 0.454304 105.921C0.37078 104.141 0.295783 102.361 0.229316 100.581L0.191818 99.1259C0.0535524 93.6547 -0.00895114 88.1818 0.00432728 82.7089V67.2894C-0.0166039 61.8191 0.0383991 56.3488 0.169319 50.88L0.221816 49.425C0.281813 47.7451 0.356809 46.0802 0.446805 44.0852C0.821785 36.098 2.08172 30.6607 3.93412 25.8758C5.81932 20.8707 8.77861 16.3395 12.6037 12.6013C16.3452 8.78207 20.8755 5.82583 25.878 3.9391C30.6628 2.08666 36.1 0.8267 44.0871 0.451713L49.4268 0.226721L50.8817 0.189223C56.3503 0.0510236 61.8206 -0.011481 67.2909 0.00172845L82.7101 0.00922765ZM75.0005 37.5079C70.032 37.4377 65.0992 38.3556 60.4885 40.2084C55.8779 42.0611 51.6815 44.8118 48.1432 48.3005C44.6049 51.7892 41.7952 55.9464 39.8774 60.5304C37.9597 65.1144 36.9721 70.0339 36.9721 75.0029C36.9721 79.972 37.9597 84.8914 39.8774 89.4755C41.7952 94.0595 44.6049 98.2167 48.1432 101.705C51.6815 105.194 55.8779 107.945 60.4885 109.797C65.0992 111.65 70.032 112.568 75.0005 112.498C84.9456 112.498 94.4834 108.547 101.516 101.515C108.548 94.4824 112.499 84.9445 112.499 74.9992C112.499 65.0539 108.548 55.5159 101.516 48.4836C94.4834 41.4512 84.9456 37.5079 75.0005 37.5079ZM75.0005 52.5074C77.9891 52.4524 80.9588 52.9934 83.736 54.0989C86.5132 55.2045 89.0423 56.8524 91.1755 58.9463C93.3087 61.0403 95.0033 63.5383 96.1602 66.2945C97.3172 69.0508 97.9133 72.0099 97.9138 74.9991C97.9143 77.9883 97.3192 80.9477 96.1631 83.7043C95.0071 86.4609 93.3134 88.9595 91.1808 91.0542C89.0483 93.1488 86.5198 94.7975 83.743 95.904C80.9661 97.0105 77.9967 97.5525 75.008 97.4984C69.0409 97.4984 63.3182 95.128 59.0989 90.9085C54.8795 86.6891 52.5091 80.9663 52.5091 74.9992C52.5091 69.032 54.8795 63.3092 59.0989 59.0898C63.3182 54.8704 69.0409 52.4999 75.008 52.4999L75.0005 52.5074ZM114.373 26.2583C111.954 26.3552 109.666 27.3844 107.988 29.1305C106.311 30.8766 105.374 33.2041 105.374 35.6255C105.374 38.0469 106.311 40.3744 107.988 42.1205C109.666 43.8666 111.954 44.8959 114.373 44.9927C116.86 44.9927 119.244 44.005 121.002 42.2469C122.76 40.4888 123.748 38.1043 123.748 35.618C123.748 33.1317 122.76 30.7472 121.002 28.9891C119.244 27.231 116.86 26.2433 114.373 26.2433V26.2583Z" fill="white"/>
</svg>
