<svg width="46" height="37" viewBox="0 0 46 37" fill="none" xmlns="http://www.w3.org/2000/svg">
<path d="M41.4 32.387H36.8V12.262L23 20.887L9.2 12.262V32.387H4.6V4.78701H7.36L23 14.562L38.64 4.78701H41.4M41.4 0.187012H4.6C2.047 0.187012 0 2.23401 0 4.78701V32.387C0 33.607 0.484641 34.777 1.34731 35.6397C2.20998 36.5024 3.38 36.987 4.6 36.987H41.4C42.62 36.987 43.79 36.5024 44.6527 35.6397C45.5154 34.777 46 33.607 46 32.387V4.78701C46 3.56702 45.5154 2.39699 44.6527 1.53432C43.79 0.671653 42.62 0.187012 41.4 0.187012Z" fill="white"/>
</svg>
