<svg width="36" height="32" viewBox="0 0 36 32" fill="none" xmlns="http://www.w3.org/2000/svg">
<path d="M4.96744 26.9544C4.62617 26.7648 4.28489 26.5752 4.13322 26.3856C3.94362 26.196 3.9057 26.0822 3.9057 26.0064C3.9057 25.9685 3.9057 25.8926 3.9057 25.8168C3.9057 25.7031 3.94362 25.5893 3.98154 25.4755C4.05738 25.3239 4.0953 25.248 4.24697 25.1343C4.55033 24.8688 5.34664 24.5655 6.21878 24.4138C7.12885 24.2621 8.15267 24.1484 9.21442 23.9967C10.3141 23.8071 11.4137 23.6933 12.8168 23.1625C13.4614 22.8591 14.3335 22.442 14.9782 21.494C15.6228 20.546 15.6986 19.4084 15.5849 18.5742C15.4711 17.7779 15.1678 16.9057 14.6748 16.2232C14.1819 15.5027 13.5372 14.9719 12.9305 14.6306C11.6792 13.9101 10.5416 13.6068 9.51777 13.3034C8.53187 13.038 7.50804 12.6967 7.43221 12.545C7.24261 12.3554 7.09093 12.1658 7.35637 11.5591C7.58388 10.9903 8.19059 10.3836 8.94898 9.89065C9.70737 9.3977 10.5416 8.98059 11.4517 8.63931H11.4896C12.0584 8.4118 12.3996 7.80509 12.2859 7.19838C12.1342 6.51583 11.4517 6.09871 10.7691 6.21247C9.66945 6.43999 8.53187 6.78126 7.43221 7.35005C6.37046 7.91884 5.2708 8.67723 4.47449 10.0044C4.0953 10.649 3.79194 11.4453 3.82986 12.3554C3.82986 13.2655 4.20905 14.2135 4.81577 14.896C5.11912 15.2373 5.4604 15.5406 5.80167 15.7682C6.14294 15.9957 6.4463 16.1474 6.74966 16.2611C7.31845 16.5266 7.84932 16.6782 8.38019 16.8678C9.3661 17.2091 10.2382 17.5504 10.807 17.9296C11.3758 18.3467 11.4896 18.5742 11.5654 19.0672V19.2568C11.5275 19.2947 11.4137 19.3705 11.2241 19.4463C10.6174 19.7118 9.63153 19.8635 8.64563 19.9772C7.6218 20.091 6.52214 20.2427 5.38456 20.4702C4.24697 20.7356 2.91979 21.039 1.59262 22.1765C0.947985 22.7453 0.417114 23.5796 0.189597 24.4517C0.0758388 24.9067 0.0379194 25.2859 0 25.7031C0 26.1202 0.0379194 26.6131 0.189597 27.0681C0.455033 28.0161 1.06174 28.7745 1.70637 29.2675C2.351 29.7983 2.95771 30.0638 3.56442 30.2913C5.99127 31.1634 8.22851 31.2393 10.4278 31.2393C12.1342 31.2014 13.8027 31.0876 15.4332 30.8601C15.4711 30.3292 15.6228 29.8363 15.8882 29.4192C16.1158 29.0779 16.2674 28.7745 16.3433 28.4332C14.4094 28.4332 12.4376 28.3574 10.5037 28.1678C8.53187 27.9782 6.48422 27.6369 4.96744 26.9544Z" fill="white"/>
<path d="M33.8998 0.979438C31.9279 0.0693717 29.6528 0.979438 28.8565 2.98917L22.7894 18.0811C23.7374 18.0811 24.6474 18.2707 25.5196 18.6878C26.3917 19.1049 27.1501 19.6737 27.7189 20.3942L35.4924 6.13648C36.592 4.24051 35.8336 1.85158 33.8998 0.979438Z" fill="white"/>
<path d="M24.6477 20.6595C22.5242 19.6736 19.9836 20.5837 18.9598 22.7072C17.898 24.9823 19.7561 27.5608 17.7463 30.6323C17.3672 31.2011 17.8222 31.9216 18.5047 31.8078C23.1309 31.1632 25.6715 28.5468 26.6953 26.3095C27.6812 24.2239 26.7712 21.6833 24.6477 20.6595Z" fill="white"/>
</svg>
