<svg width="32" height="31" viewBox="0 0 32 31" fill="none" xmlns="http://www.w3.org/2000/svg">
<path d="M17.6 24.3102V27.4681H24V30.626H8.00006V27.4681H14.4V24.3102H1.58728C1.37704 24.309 1.16912 24.2668 0.975445 24.186C0.781774 24.1053 0.606164 23.9876 0.458694 23.8397C0.311225 23.6919 0.194799 23.5167 0.116098 23.3243C0.0373967 23.1319 -0.00202992 22.9261 8.04533e-05 22.7186V2.21756C8.04533e-05 1.33808 0.728079 0.625977 1.58728 0.625977H30.4128C31.2896 0.625977 32 1.33492 32 2.21598V22.7186C32 23.5981 31.272 24.3102 30.4128 24.3102H17.6Z" fill="white"/>
</svg>
