<svg width="32" height="33" viewBox="0 0 32 33" fill="none" xmlns="http://www.w3.org/2000/svg">
<path d="M17.6448 0.627945C18.8123 0.623465 19.9799 0.635199 21.147 0.663144L21.4574 0.674344C21.8158 0.687143 22.1694 0.703143 22.5966 0.722342C24.2989 0.802339 25.4604 1.07113 26.4796 1.46632C27.5355 1.8727 28.4251 2.42308 29.3146 3.31265C30.128 4.112 30.7575 5.07891 31.1593 6.14616C31.5545 7.16532 31.8233 8.32848 31.9033 10.0308C31.9225 10.4564 31.9385 10.8116 31.9513 11.17L31.9609 11.4804C31.9893 12.647 32.0016 13.814 31.9977 14.9811L31.9993 16.1746V18.2705C32.0032 19.4381 31.991 20.6056 31.9625 21.7728L31.9529 22.0832C31.9401 22.4416 31.9241 22.7952 31.9049 23.2224C31.8249 24.9247 31.5529 26.0863 31.1593 27.1054C30.7588 28.1738 30.1291 29.1415 29.3146 29.9405C28.5146 30.7538 27.5472 31.3833 26.4796 31.7853C25.4604 32.1805 24.2989 32.4493 22.5966 32.5293C22.1694 32.5485 21.8158 32.5645 21.4574 32.5773L21.147 32.5869C19.9799 32.6153 18.8123 32.6276 17.6448 32.6237L16.4513 32.6253H14.357C13.1895 32.6292 12.0219 32.6169 10.8548 32.5885L10.5444 32.5789C10.1646 32.5651 9.78486 32.5491 9.40524 32.5309C7.70293 32.4509 6.54139 32.1789 5.52064 31.7853C4.45299 31.3843 3.48592 30.7546 2.68719 29.9405C1.8729 29.141 1.24282 28.1735 0.84088 27.1054C0.4457 26.0863 0.176914 24.9247 0.0969181 23.2224C0.0790997 22.8427 0.0631004 22.463 0.0489206 22.0832L0.0409213 21.7728C0.0114245 20.6056 -0.00190958 19.4381 0.000923154 18.2705V14.9811C-0.00354216 13.8141 0.00819182 12.6471 0.0361215 11.4804L0.0473208 11.17C0.0601202 10.8116 0.0761193 10.4564 0.0953183 10.0308C0.175314 8.32688 0.4441 7.16692 0.83928 6.14616C1.24146 5.07839 1.87277 4.11174 2.68879 3.31425C3.48698 2.49948 4.45343 1.86882 5.52064 1.46632C6.54139 1.07113 7.70133 0.802339 9.40524 0.722342L10.5444 0.674344L10.8548 0.666344C12.0214 0.636862 13.1884 0.623527 14.3554 0.626345L17.6448 0.627945ZM16.0001 8.62767C14.9402 8.61268 13.8878 8.8085 12.9042 9.20376C11.9206 9.59902 11.0254 10.1858 10.2705 10.9301C9.5157 11.6743 8.91631 12.5612 8.50719 13.5391C8.09807 14.5171 7.88738 15.5665 7.88738 16.6266C7.88738 17.6867 8.09807 18.7362 8.50719 19.7141C8.91631 20.692 9.5157 21.5789 10.2705 22.3231C11.0254 23.0674 11.9206 23.6542 12.9042 24.0494C13.8878 24.4447 14.9402 24.6405 16.0001 24.6255C18.1217 24.6255 20.1565 23.7827 21.6567 22.2825C23.1569 20.7822 23.9997 18.7475 23.9997 16.6258C23.9997 14.5041 23.1569 12.4694 21.6567 10.9691C20.1565 9.4689 18.1217 8.62767 16.0001 8.62767ZM16.0001 11.8276C16.6377 11.8158 17.2712 11.9312 17.8637 12.1671C18.4562 12.4029 18.9957 12.7545 19.4508 13.2012C19.9059 13.6479 20.2674 14.1808 20.5142 14.7688C20.761 15.3568 20.8882 15.9881 20.8883 16.6258C20.8884 17.2635 20.7614 17.8948 20.5148 18.4829C20.2682 19.071 19.9068 19.604 19.4519 20.0509C18.997 20.4977 18.4576 20.8495 17.8652 21.0855C17.2728 21.3215 16.6393 21.4372 16.0017 21.4256C14.7287 21.4256 13.5079 20.9199 12.6078 20.0198C11.7076 19.1197 11.2019 17.8988 11.2019 16.6258C11.2019 15.3528 11.7076 14.1319 12.6078 13.2318C13.5079 12.3317 14.7287 11.826 16.0017 11.826L16.0001 11.8276ZM24.3997 6.22775C23.8835 6.24841 23.3954 6.46799 23.0375 6.84049C22.6796 7.21299 22.4798 7.70952 22.4798 8.22609C22.4798 8.74265 22.6796 9.23919 23.0375 9.61169C23.3954 9.98419 23.8835 10.2038 24.3997 10.2244C24.9301 10.2244 25.4388 10.0137 25.8138 9.63865C26.1889 9.26359 26.3996 8.7549 26.3996 8.22449C26.3996 7.69407 26.1889 7.18538 25.8138 6.81032C25.4388 6.43526 24.9301 6.22456 24.3997 6.22456V6.22775Z" fill="white"/>
</svg>
