<svg width="46" height="47" viewBox="0 0 46 47" fill="none" xmlns="http://www.w3.org/2000/svg">
<path d="M25.3644 0.189842C27.0427 0.183401 28.721 0.200269 30.3989 0.24044L30.845 0.256539C31.3602 0.274939 31.8685 0.297938 32.4826 0.325537C34.9296 0.440533 36.5993 0.82692 38.0644 1.395C39.5823 1.97918 40.861 2.77035 42.1398 4.04911C43.309 5.19817 44.2139 6.5881 44.7915 8.12227C45.3596 9.58732 45.746 11.2594 45.861 13.7065C45.8886 14.3183 45.9116 14.8288 45.93 15.344L45.9438 15.7902C45.9846 17.4673 46.0023 19.1449 45.9967 20.8224L45.999 22.5382V25.5511C46.0046 27.2294 45.987 28.9078 45.9461 30.5856L45.9323 31.0318C45.9139 31.547 45.8909 32.0553 45.8633 32.6693C45.7483 35.1165 45.3573 36.7862 44.7915 38.2512C44.2157 39.787 43.3106 41.1781 42.1398 42.3267C40.9897 43.4958 39.5991 44.4007 38.0644 44.9785C36.5993 45.5466 34.9296 45.933 32.4826 46.048C31.8685 46.0756 31.3602 46.0986 30.845 46.117L30.3989 46.1308C28.721 46.1717 27.0427 46.1893 25.3644 46.1837L23.6487 46.186H20.6382C18.9599 46.1916 17.2815 46.174 15.6037 46.1331L15.1575 46.1193C14.6116 46.0995 14.0657 46.0765 13.52 46.0503C11.073 45.9353 9.40324 45.5443 7.93592 44.9785C6.40117 44.402 5.01102 43.497 3.86283 42.3267C2.69229 41.1774 1.78655 39.7866 1.20877 38.2512C0.640694 36.7862 0.254314 35.1165 0.13932 32.6693C0.113706 32.1236 0.0907068 31.5777 0.0703234 31.0318L0.0588243 30.5856C0.0164227 28.9078 -0.00274502 27.2294 0.00132703 25.5511V20.8224C-0.00509186 19.1449 0.0117757 17.4673 0.0519246 15.7902L0.0680237 15.344C0.0864228 14.8288 0.109422 14.3183 0.13702 13.7065C0.252014 11.2571 0.638394 9.58962 1.20646 8.12227C1.78459 6.58735 2.69211 5.19779 3.86513 4.05141C5.01253 2.88018 6.40181 1.9736 7.93592 1.395C9.40324 0.82692 11.0707 0.440533 13.52 0.325537L15.1575 0.256539L15.6037 0.24504C17.2808 0.202659 18.9583 0.183491 20.6359 0.187542L25.3644 0.189842ZM23.0001 11.6895C21.4765 11.6679 19.9637 11.9494 18.5498 12.5176C17.1359 13.0858 15.849 13.9293 14.7639 14.9992C13.6788 16.069 12.8172 17.3439 12.2291 18.7497C11.641 20.1554 11.3381 21.6641 11.3381 23.1879C11.3381 24.7117 11.641 26.2204 12.2291 27.6262C12.8172 29.0319 13.6788 30.3068 14.7639 31.3767C15.849 32.4465 17.1359 33.2901 18.5498 33.8582C19.9637 34.4264 21.4765 34.7079 23.0001 34.6864C26.05 34.6864 28.9749 33.4748 31.1315 31.3182C33.288 29.1616 34.4996 26.2366 34.4996 23.1868C34.4996 20.1369 33.288 17.2119 31.1315 15.0553C28.9749 12.8987 26.05 11.6895 23.0001 11.6895ZM23.0001 16.2893C23.9167 16.2724 24.8274 16.4383 25.679 16.7774C26.5307 17.1164 27.3063 17.6217 27.9605 18.2639C28.6147 18.906 29.1343 19.6721 29.4891 20.5173C29.8439 21.3626 30.0267 22.27 30.0269 23.1867C30.0271 24.1034 29.8445 25.011 29.49 25.8563C29.1355 26.7017 28.6161 27.4679 27.9621 28.1103C27.3082 28.7526 26.5327 29.2583 25.6812 29.5976C24.8296 29.9369 23.919 30.1031 23.0024 30.0865C21.1725 30.0865 19.4176 29.3596 18.1237 28.0656C16.8297 26.7717 16.1028 25.0167 16.1028 23.1868C16.1028 21.3568 16.8297 19.6018 18.1237 18.3079C19.4176 17.0139 21.1725 16.287 23.0024 16.287L23.0001 16.2893ZM35.0745 8.23957C34.3326 8.26926 33.6309 8.5849 33.1164 9.12037C32.602 9.65584 32.3146 10.3696 32.3146 11.1122C32.3146 11.8547 32.602 12.5685 33.1164 13.104C33.6309 13.6394 34.3326 13.9551 35.0745 13.9848C35.837 13.9848 36.5682 13.6819 37.1074 13.1427C37.6465 12.6036 37.9494 11.8723 37.9494 11.1099C37.9494 10.3474 37.6465 9.61616 37.1074 9.07701C36.5682 8.53786 35.837 8.23497 35.0745 8.23497V8.23957Z" fill="white"/>
</svg>
