<svg width="35" height="32" viewBox="0 0 35 32" fill="none" xmlns="http://www.w3.org/2000/svg">
<path d="M17.907 0.0141852C16.7928 -0.0654017 15.6309 0.189276 14.5962 0.794137C13.9316 1.17468 13.3486 1.68267 12.8807 2.28898C12.4128 2.89529 12.0692 3.588 11.8696 4.32738C11.67 5.06676 11.6182 5.83828 11.7174 6.59769C11.8165 7.35711 12.0646 8.08948 12.4474 8.75282L24.1307 28.9679C25.7384 31.7693 29.3039 32.6926 32.1053 31.1008C34.8909 29.5091 35.8141 25.9277 34.2224 23.1421L22.5708 2.92706C22.0896 2.09831 21.4131 1.39971 20.6003 0.892036C19.7875 0.384365 18.8629 0.0830082 17.907 0.0141852ZM9.26391 8.43448L0.795869 23.1421C0.279875 24.0266 0.00541608 25.0311 0 26.055C0 26.8222 0.151099 27.5818 0.444671 28.2905C0.738243 28.9993 1.16854 29.6432 1.71099 30.1857C2.25344 30.7281 2.89742 31.1584 3.60616 31.452C4.31491 31.7456 5.07454 31.8967 5.84168 31.8967C6.86564 31.8936 7.87079 31.6213 8.75639 31.1073C9.64198 30.5933 10.3769 29.8555 10.8875 28.9679V28.9838L15.9174 20.2611C13.7685 16.6001 11.5719 12.955 9.59818 9.18259C9.47084 8.94383 9.35942 8.68915 9.27983 8.43448H9.26391Z" fill="#2320E8"/>
</svg>
