<svg width="35" height="35" viewBox="0 0 35 35" fill="none" xmlns="http://www.w3.org/2000/svg">
<path d="M29.838 0H5.15939C2.32172 0 0 2.32172 0 5.15939V29.8406C0 32.6783 2.32172 35 5.15939 35H29.8406C32.6783 35 35 32.6783 35 29.8406V5.15939C34.9974 2.32172 32.6783 0 29.838 0ZM29.5065 18.6809H25.3532V33.7076H19.1388V18.6809H16.0302V13.5008H19.1388V10.3923C19.1388 6.16676 20.8929 3.65285 25.8846 3.65285H30.0341V8.83158H27.4389C25.499 8.83158 25.37 9.55777 25.37 10.9082L25.3532 13.5008H30.0547L29.5065 18.6809Z" fill="#2320E8"/>
</svg>
