<svg width="35" height="35" viewBox="0 0 35 35" fill="none" xmlns="http://www.w3.org/2000/svg">
<path d="M19.299 0.00215312C20.576 -0.0027471 21.853 0.0100872 23.1296 0.0406519L23.4691 0.0529015C23.861 0.066901 24.2478 0.0844003 24.715 0.1054C26.5769 0.192897 27.8473 0.486887 28.962 0.919122C30.117 1.36361 31.0899 1.96559 32.0629 2.93855C32.9525 3.81283 33.641 4.87039 34.0805 6.0377C34.5127 7.15241 34.8067 8.42462 34.8942 10.2866C34.9152 10.752 34.9327 11.1405 34.9467 11.5325L34.9572 11.872C34.9883 13.148 35.0017 14.4245 34.9975 15.7009L34.9992 17.0063V19.2987C35.0035 20.5757 34.9901 21.8527 34.959 23.1294L34.9485 23.4689C34.9345 23.8608 34.917 24.2476 34.896 24.7148C34.8085 26.5767 34.511 27.8472 34.0805 28.9619C33.6424 30.1305 32.9537 31.1889 32.0629 32.0628C31.1878 32.9523 30.1298 33.6408 28.962 34.0805C27.8473 34.5127 26.5769 34.8067 24.715 34.8942C24.2478 34.9152 23.861 34.9327 23.4691 34.9467L23.1296 34.9572C21.853 34.9883 20.576 35.0017 19.299 34.9975L17.9936 34.9992H15.703C14.426 35.0035 13.149 34.9901 11.8724 34.959L11.5329 34.9485C11.1175 34.9334 10.7022 34.9159 10.287 34.896C8.42508 34.8085 7.15464 34.511 6.0382 34.0805C4.87046 33.6419 3.81273 32.9532 2.93911 32.0628C2.04848 31.1883 1.35933 30.1301 0.919713 28.9619C0.487485 27.8472 0.1935 26.5767 0.106004 24.7148C0.0865153 24.2996 0.0690161 23.8843 0.053507 23.4689L0.0447576 23.1294C0.0124956 21.8528 -0.0020886 20.5758 0.0010097 19.2987V15.7009C-0.00387424 14.4245 0.0089598 13.148 0.0395079 11.872L0.0517572 11.5325C0.0657565 11.1405 0.0832555 10.752 0.104254 10.2866C0.19175 8.42287 0.485735 7.15416 0.917962 6.0377C1.35784 4.86982 2.04834 3.81255 2.94086 2.9403C3.81388 2.04915 4.87094 1.35936 6.0382 0.919122C7.15464 0.486887 8.42333 0.192897 10.287 0.1054L11.5329 0.0529015L11.8724 0.044152C13.1484 0.0119055 14.4248 -0.0026789 15.7012 0.000403305L19.299 0.00215312ZM17.5001 8.75185C16.3408 8.73546 15.1898 8.94964 14.114 9.38195C13.0382 9.81426 12.059 10.4561 11.2334 11.2701C10.4078 12.0841 9.75221 13.0541 9.30474 14.1238C8.85726 15.1934 8.62683 16.3412 8.62683 17.5007C8.62683 18.6601 8.85726 19.808 9.30474 20.8776C9.75221 21.9472 10.4078 22.9172 11.2334 23.7313C12.059 24.5453 13.0382 25.1871 14.114 25.6194C15.1898 26.0517 16.3408 26.2659 17.5001 26.2495C19.8206 26.2495 22.0461 25.3277 23.687 23.6868C25.3278 22.0459 26.2497 19.8204 26.2497 17.4998C26.2497 15.1792 25.3278 12.9537 23.687 11.3128C22.0461 9.67195 19.8206 8.75185 17.5001 8.75185ZM17.5001 12.2517C18.1975 12.2389 18.8904 12.3651 19.5384 12.6231C20.1864 12.881 20.7765 13.2655 21.2743 13.7541C21.772 14.2427 22.1674 14.8256 22.4374 15.4687C22.7073 16.1118 22.8464 16.8023 22.8466 17.4998C22.8467 18.1973 22.7078 18.8878 22.4381 19.531C22.1683 20.1742 21.7731 20.7572 21.2755 21.246C20.7779 21.7347 20.188 22.1194 19.54 22.3776C18.8921 22.6358 18.1992 22.7622 17.5019 22.7496C16.1095 22.7496 14.7743 22.1965 13.7897 21.212C12.8052 20.2275 12.2521 18.8921 12.2521 17.4998C12.2521 16.1075 12.8052 14.7722 13.7897 13.7876C14.7743 12.8031 16.1095 12.25 17.5019 12.25L17.5001 12.2517ZM26.6871 6.12694C26.1226 6.14954 25.5887 6.3897 25.1973 6.79712C24.8058 7.20454 24.5872 7.74762 24.5872 8.31262C24.5872 8.87761 24.8058 9.4207 25.1973 9.82812C25.5887 10.2355 26.1226 10.4757 26.6871 10.4983C27.2673 10.4983 27.8236 10.2678 28.2339 9.85761C28.6441 9.44739 28.8745 8.89101 28.8745 8.31087C28.8745 7.73073 28.6441 7.17435 28.2339 6.76413C27.8236 6.35391 27.2673 6.12345 26.6871 6.12345V6.12694Z" fill="#2320E8"/>
</svg>
