<svg width="87" height="86" viewBox="0 0 87 86" fill="none" xmlns="http://www.w3.org/2000/svg">
<path d="M33.1239 7.76542C31.0101 12.234 26.0608 14.6174 21.2491 13.484C11.8165 11.262 4.04509 21.007 8.31034 29.7087C10.486 34.1475 9.26368 39.5031 5.37752 42.5583C-2.24088 48.5476 0.532687 60.6994 9.99533 62.7902C14.8222 63.8567 18.2472 68.1515 18.2129 73.0947C18.1456 82.7853 29.3755 88.1934 36.91 82.0987C40.7533 78.9899 46.2467 78.9899 50.09 82.0987C57.6245 88.1934 68.8544 82.7853 68.7871 73.0947C68.7528 68.1515 72.1778 63.8567 77.0047 62.7902C86.4673 60.6994 89.2409 48.5476 81.6225 42.5583C77.7363 39.5031 76.5139 34.1475 78.6897 29.7087C82.9549 21.007 75.1835 11.262 65.7509 13.484C60.9392 14.6174 55.9899 12.234 53.8761 7.76541C49.7322 -0.994747 37.2678 -0.994745 33.1239 7.76542Z" fill="#2320E8" stroke="white"/>
</svg>
