<svg width="25" height="28" viewBox="0 0 25 28" fill="none" xmlns="http://www.w3.org/2000/svg">
<path fill-rule="evenodd" clip-rule="evenodd" d="M18.853 0.701476C14.6689 -0.233825 10.3299 -0.233825 6.14571 0.701476L5.69487 0.80122C4.51791 1.06436 3.43695 1.64862 2.57205 2.4891C1.70715 3.32958 1.09218 4.39338 0.795459 5.56232C-0.265153 9.74161 -0.265153 14.1196 0.795459 18.2989C1.07843 19.4137 1.65113 20.4339 2.4555 21.256C3.25987 22.0781 4.26731 22.673 5.37569 22.9802L5.9941 26.6721C6.01384 26.7893 6.06465 26.8991 6.14123 26.99C6.21782 27.0809 6.31738 27.1497 6.42954 27.1891C6.54171 27.2284 6.66239 27.237 6.77901 27.2139C6.89562 27.1908 7.00391 27.1369 7.09261 27.0577L10.7246 23.8088C13.4511 23.9751 16.1873 23.7571 18.853 23.1611L19.3052 23.0613C20.4822 22.7982 21.5631 22.2139 22.428 21.3735C23.2929 20.533 23.9079 19.4692 24.2046 18.3002C25.2651 14.1209 25.2651 9.74295 24.2046 5.56365C23.9078 4.39454 23.2926 3.33063 22.4275 2.49013C21.5623 1.64963 20.4811 1.06547 19.3039 0.80255L18.853 0.701476ZM7.26816 5.45459C7.02099 5.41862 6.76895 5.46837 6.55399 5.59556H6.53537C6.03665 5.88815 5.58714 6.25653 5.20413 6.69008C4.88495 7.05847 4.71206 7.43085 4.66684 7.78992C4.64024 8.00271 4.65886 8.21816 4.72137 8.42163L4.74531 8.43493C5.10438 9.48956 5.57251 10.5043 6.14438 11.4592C6.88175 12.8004 7.78916 14.0408 8.8441 15.1497L8.87602 15.1949L8.92656 15.2321L8.95715 15.268L8.99438 15.3C10.1072 16.3581 11.3505 17.2698 12.6942 18.013C14.2303 18.8495 15.1625 19.2445 15.7224 19.4094V19.4174C15.886 19.4679 16.035 19.4905 16.1852 19.4905C16.6621 19.4553 17.1134 19.2615 17.4673 18.9399C17.8995 18.5569 18.2652 18.1061 18.5498 17.6047V17.5954C18.8171 17.09 18.7267 16.6139 18.341 16.2907C17.5663 15.6139 16.7287 15.0127 15.8395 14.4954C15.2437 14.1722 14.6385 14.3677 14.3938 14.6948L13.8712 15.3545C13.6025 15.6816 13.1158 15.6364 13.1158 15.6364L13.1025 15.6444C9.47049 14.7175 8.50099 11.0402 8.50099 11.0402C8.50099 11.0402 8.45577 10.5402 8.79224 10.2848L9.44656 9.7582C9.76042 9.50285 9.97852 8.89907 9.64205 8.30327C9.12818 7.41324 8.52817 6.57581 7.85066 5.80303C7.70289 5.62116 7.49566 5.49729 7.2655 5.45326L7.26816 5.45459ZM13.4044 3.85603C13.228 3.85603 13.0589 3.92609 12.9342 4.0508C12.8095 4.1755 12.7394 4.34463 12.7394 4.52099C12.7394 4.69735 12.8095 4.86648 12.9342 4.99119C13.0589 5.11589 13.228 5.18595 13.4044 5.18595C15.0867 5.18595 16.4831 5.73521 17.5883 6.7885C18.1562 7.36435 18.599 8.0466 18.889 8.79401C19.1802 9.54275 19.3132 10.342 19.2786 11.1426C19.275 11.23 19.2885 11.3172 19.3185 11.3992C19.3486 11.4813 19.3945 11.5567 19.4536 11.621C19.5731 11.751 19.7393 11.8281 19.9156 11.8355C20.092 11.8429 20.2641 11.78 20.394 11.6605C20.524 11.541 20.6011 11.3749 20.6085 11.1985C20.6498 10.2137 20.4863 9.231 20.1284 8.31258C19.769 7.3898 19.224 6.5506 18.5272 5.84692L18.5139 5.83362C17.1428 4.52365 15.4072 3.85603 13.4044 3.85603ZM13.3592 6.04242C13.1828 6.04242 13.0137 6.11247 12.889 6.23718C12.7643 6.36188 12.6942 6.53102 12.6942 6.70737C12.6942 6.88373 12.7643 7.05287 12.889 7.17757C13.0137 7.30227 13.1828 7.37233 13.3592 7.37233H13.3818C14.5947 7.45878 15.4777 7.86307 16.0961 8.5267C16.7305 9.21027 17.059 10.0601 17.0337 11.1107C17.0297 11.2871 17.0958 11.4578 17.2177 11.5854C17.3395 11.713 17.507 11.7869 17.6834 11.791C17.8597 11.795 18.0305 11.7289 18.1581 11.607C18.2856 11.4852 18.3596 11.3177 18.3636 11.1413C18.3956 9.76219 17.9514 8.57191 17.071 7.62235V7.61969C16.1706 6.65418 14.9351 6.14349 13.4483 6.04375L13.4257 6.04109L13.3592 6.04242ZM13.3339 8.27002C13.2449 8.26217 13.1552 8.27233 13.0703 8.2999C12.9853 8.32746 12.9067 8.37187 12.8393 8.43046C12.7719 8.48906 12.7169 8.56064 12.6778 8.64093C12.6386 8.72123 12.616 8.80859 12.6114 8.89781C12.6067 8.98702 12.6201 9.07626 12.6507 9.16019C12.6813 9.24412 12.7285 9.32102 12.7895 9.38631C12.8505 9.45159 12.924 9.50392 13.0056 9.54017C13.0873 9.57642 13.1754 9.59584 13.2647 9.59728C13.8206 9.62654 14.1757 9.79411 14.3992 10.0189C14.6239 10.2449 14.7915 10.608 14.8221 11.1759C14.8237 11.2651 14.8433 11.3531 14.8797 11.4346C14.9161 11.5161 14.9685 11.5894 15.0339 11.6503C15.0992 11.7111 15.1761 11.7581 15.26 11.7886C15.3439 11.819 15.4331 11.8323 15.5222 11.8275C15.6113 11.8228 15.6986 11.8002 15.7788 11.761C15.859 11.7218 15.9304 11.6669 15.989 11.5995C16.0475 11.5321 16.0919 11.4537 16.1194 11.3688C16.147 11.2839 16.1571 11.1943 16.1493 11.1054C16.1068 10.3075 15.8567 9.6026 15.3447 9.08393C14.8301 8.56526 14.1292 8.31258 13.3339 8.27002Z" fill="black"/>
</svg>
