<svg width="10" height="10" viewBox="0 0 10 10" fill="none" xmlns="http://www.w3.org/2000/svg">
<path d="M5.71429 4.28571V0.714286C5.71429 0.524845 5.63903 0.343164 5.50508 0.20921C5.37112 0.0752549 5.18944 0 5 0C4.81056 0 4.62888 0.0752549 4.49492 0.20921C4.36097 0.343164 4.28571 0.524845 4.28571 0.714286V4.28571H0.714286C0.524845 4.28571 0.343164 4.36097 0.20921 4.49492C0.0752549 4.62888 0 4.81056 0 5C0 5.18944 0.0752549 5.37112 0.20921 5.50508C0.343164 5.63903 0.524845 5.71429 0.714286 5.71429H4.28571V9.28571C4.28571 9.47515 4.36097 9.65684 4.49492 9.79079C4.62888 9.92475 4.81056 10 5 10C5.18944 10 5.37112 9.92475 5.50508 9.79079C5.63903 9.65684 5.71429 9.47515 5.71429 9.28571V5.71429H9.28571C9.47515 5.71429 9.65684 5.63903 9.79079 5.50508C9.92475 5.37112 10 5.18944 10 5C10 4.81056 9.92475 4.62888 9.79079 4.49492C9.65684 4.36097 9.47515 4.28571 9.28571 4.28571H5.71429Z" fill="white"/>
</svg>
