<svg width="68" height="68" viewBox="0 0 68 68" fill="none" xmlns="http://www.w3.org/2000/svg">
<path d="M2.56 20.7226L26.4172 33.1822L0 38.4464L0.194473 39.7927L27.0314 37.4353L7.66708 56.0806L8.56196 57.1088L29.8582 40.6826L23.6946 66.7894L25.0058 67.1726L34 41.8931L42.9941 67.1726L44.3054 66.7894L38.1418 40.6826L59.438 57.1088L60.3329 56.0806L40.9685 37.4353L67.8055 39.7927L68 38.4464L41.5827 33.1822L65.44 20.7226L64.8723 19.4852L39.7897 29.2736L53.0925 5.95274L51.9429 5.21733L36.1583 26.9505L34.6833 0.172607H33.3167L31.8416 26.9505L16.0571 5.21733L14.9075 5.95274L28.2103 29.2736L3.12768 19.4852L2.56 20.7226Z" fill="#1D1D1D"/>
</svg>
