<svg width="46" height="47" viewBox="0 0 46 47" fill="none" xmlns="http://www.w3.org/2000/svg">
<path d="M23 0.187012C10.304 0.187012 0 10.491 0 23.187C0 35.883 10.304 46.187 23 46.187C35.696 46.187 46 35.883 46 23.187C46 10.491 35.696 0.187012 23 0.187012ZM33.672 15.827C33.327 19.461 31.832 28.293 31.073 32.364C30.751 34.089 30.107 34.664 29.509 34.733C28.175 34.848 27.163 33.859 25.875 33.008C23.851 31.674 22.701 30.846 20.746 29.558C18.469 28.063 19.941 27.235 21.252 25.901C21.597 25.556 27.485 20.197 27.6 19.714C27.616 19.6409 27.6138 19.5649 27.5938 19.4928C27.5738 19.4206 27.5364 19.3544 27.485 19.3C27.347 19.185 27.163 19.231 27.002 19.254C26.795 19.3 23.575 21.439 17.296 25.671C16.376 26.292 15.548 26.614 14.812 26.591C13.984 26.568 12.42 26.131 11.247 25.74C9.798 25.28 8.671 25.027 8.763 24.222C8.809 23.808 9.384 23.394 10.465 22.957C17.181 20.036 21.643 18.104 23.874 17.184C30.268 14.516 31.579 14.056 32.453 14.056C32.637 14.056 33.074 14.102 33.35 14.332C33.58 14.516 33.649 14.769 33.672 14.953C33.649 15.091 33.695 15.505 33.672 15.827Z" fill="white"/>
</svg>
