<svg width="43" height="47" viewBox="0 0 43 47" fill="none" xmlns="http://www.w3.org/2000/svg">
<path fill-rule="evenodd" clip-rule="evenodd" d="M31.8527 1.37217C24.7835 -0.208042 17.4525 -0.208042 10.3833 1.37217L9.62162 1.54069C7.63313 1.98527 5.80681 2.9724 4.34554 4.39241C2.88428 5.81243 1.84527 7.60973 1.34395 9.58468C-0.447982 16.6457 -0.447982 24.0425 1.34395 31.1035C1.82204 32.987 2.78963 34.7106 4.14863 36.0996C5.50763 37.4886 7.20972 38.4936 9.08235 39.0126L10.1272 45.2501C10.1605 45.4482 10.2464 45.6337 10.3758 45.7873C10.5052 45.9409 10.6734 46.057 10.8629 46.1236C11.0524 46.1901 11.2563 46.2046 11.4533 46.1656C11.6503 46.1266 11.8333 46.0355 11.9831 45.9017L18.1195 40.4125C22.7259 40.6936 27.3489 40.3252 31.8527 39.3182L32.6166 39.1497C34.6051 38.7051 36.4314 37.718 37.8927 36.298C39.354 34.878 40.393 33.0807 40.8943 31.1057C42.686 24.0447 42.686 16.648 40.8943 9.58693C40.3928 7.61169 39.3535 5.81419 37.8918 4.39415C36.4301 2.97411 34.6033 1.98715 32.6144 1.54294L31.8527 1.37217ZM12.2797 9.40268C11.8621 9.3419 11.4363 9.42595 11.0731 9.64085H11.0417C10.1991 10.1352 9.43961 10.7576 8.7925 11.4901C8.25324 12.1125 7.96114 12.7416 7.88474 13.3483C7.8398 13.7078 7.87126 14.0718 7.97687 14.4156L8.01731 14.438C8.62398 16.2198 9.4149 17.9342 10.3811 19.5475C11.6269 21.8135 13.16 23.9093 14.9423 25.7828L14.9963 25.8592L15.0816 25.9221L15.1333 25.9827L15.1962 26.0367C17.0763 27.8244 19.1769 29.3648 21.4472 30.6204C24.0424 32.0337 25.6175 32.701 26.5634 32.9797V32.9931C26.8398 33.0785 27.0914 33.1167 27.3454 33.1167C28.151 33.0572 28.9135 32.7297 29.5114 32.1865C30.2416 31.5394 30.8595 30.7777 31.3404 29.9306V29.9149C31.792 29.061 31.6392 28.2566 30.9876 27.7106C29.6788 26.567 28.2635 25.5513 26.7612 24.6773C25.7545 24.1313 24.7322 24.4616 24.3187 25.0143L23.4357 26.1288C22.9818 26.6815 22.1595 26.6051 22.1595 26.6051L22.137 26.6186C16.0006 25.0525 14.3626 18.8398 14.3626 18.8398C14.3626 18.8398 14.2862 17.9949 14.8547 17.5635L15.9602 16.6737C16.4905 16.2423 16.859 15.2222 16.2905 14.2156C15.4223 12.7119 14.4086 11.297 13.2639 9.99137C13.0142 9.6841 12.6641 9.47482 12.2752 9.40043L12.2797 9.40268ZM22.647 6.70188C22.3491 6.70188 22.0633 6.82024 21.8526 7.03093C21.6419 7.24162 21.5236 7.52738 21.5236 7.82534C21.5236 8.1233 21.6419 8.40906 21.8526 8.61975C22.0633 8.83044 22.3491 8.9488 22.647 8.9488C25.4894 8.9488 27.8487 9.87678 29.7159 11.6563C30.6753 12.6293 31.4235 13.7819 31.9133 15.0447C32.4054 16.3097 32.6301 17.6601 32.5717 19.0128C32.5655 19.1603 32.5884 19.3076 32.6392 19.4463C32.6899 19.585 32.7674 19.7123 32.8674 19.821C33.0692 20.0405 33.35 20.1709 33.648 20.1834C33.9459 20.1959 34.2367 20.0896 34.4562 19.8877C34.6757 19.6859 34.8061 19.4051 34.8186 19.1071C34.8883 17.4433 34.6121 15.783 34.0075 14.2313C33.4002 12.6723 32.4795 11.2544 31.3022 10.0655L31.2797 10.0431C28.9631 7.82983 26.0309 6.70188 22.647 6.70188ZM22.5706 10.3958C22.2727 10.3958 21.9869 10.5142 21.7762 10.7249C21.5655 10.9356 21.4472 11.2213 21.4472 11.5193C21.4472 11.8172 21.5655 12.103 21.7762 12.3137C21.9869 12.5244 22.2727 12.6427 22.5706 12.6427H22.6088C24.658 12.7888 26.15 13.4719 27.1948 14.5931C28.2666 15.748 28.8216 17.1838 28.7789 18.9588C28.772 19.2568 28.8838 19.5453 29.0897 19.7608C29.2955 19.9764 29.5786 20.1013 29.8765 20.1082C30.1745 20.115 30.463 20.0032 30.6785 19.7974C30.894 19.5915 31.019 19.3085 31.0258 19.0105C31.0797 16.6805 30.3293 14.6695 28.8418 13.0652V13.0607C27.3206 11.4294 25.2332 10.5666 22.7212 10.3981L22.683 10.3936L22.5706 10.3958ZM22.5279 14.1594C22.3776 14.1462 22.2261 14.1633 22.0825 14.2099C21.939 14.2565 21.8063 14.3315 21.6923 14.4305C21.5784 14.5295 21.4856 14.6504 21.4194 14.7861C21.3533 14.9217 21.3151 15.0693 21.3073 15.2201C21.2994 15.3708 21.322 15.5216 21.3737 15.6634C21.4254 15.8052 21.5052 15.9351 21.6082 16.0454C21.7112 16.1557 21.8354 16.2441 21.9734 16.3054C22.1113 16.3666 22.2602 16.3994 22.4111 16.4018C23.3503 16.4513 23.9502 16.7344 24.3277 17.1141C24.7075 17.4961 24.9906 18.1095 25.0423 19.0689C25.0451 19.2197 25.0782 19.3684 25.1397 19.5061C25.2011 19.6438 25.2897 19.7677 25.4001 19.8704C25.5105 19.9731 25.6404 20.0526 25.7821 20.1041C25.9239 20.1555 26.0745 20.1779 26.2251 20.1699C26.3757 20.1619 26.5231 20.1237 26.6586 20.0575C26.7941 19.9913 26.9149 19.8986 27.0138 19.7847C27.1126 19.6709 27.1876 19.5383 27.2341 19.3948C27.2807 19.2514 27.2979 19.1001 27.2847 18.9499C27.2128 17.6017 26.7904 16.4108 25.9253 15.5345C25.0557 14.6582 23.8716 14.2313 22.5279 14.1594Z" fill="white"/>
</svg>
