<svg width="46" height="47" viewBox="0 0 46 47" fill="none" xmlns="http://www.w3.org/2000/svg">
<path d="M23 0.187012C35.7029 0.187012 46 10.4841 46 23.187C46 35.8899 35.7029 46.187 23 46.187C18.9354 46.1935 14.9423 45.1179 11.431 43.0705L0.00923235 46.187L3.11883 34.7606C1.06975 31.2482 -0.00675826 27.2534 3.19245e-05 23.187C3.19245e-05 10.4841 10.2971 0.187012 23 0.187012ZM15.1616 12.377L14.7016 12.3954C14.4038 12.4135 14.1128 12.4918 13.846 12.6254C13.5965 12.7667 13.3688 12.9433 13.1698 13.1498C12.8938 13.4097 12.7374 13.6351 12.5695 13.8536C11.7188 14.9597 11.2608 16.3176 11.2677 17.713C11.2723 18.84 11.5667 19.9371 12.0267 20.9629C12.9674 23.0375 14.5153 25.234 16.5577 27.2695C17.0499 27.7594 17.5329 28.2516 18.0527 28.7093C20.5905 30.9437 23.6147 32.555 26.8847 33.4151L28.1911 33.6152C28.6166 33.6382 29.0421 33.606 29.4699 33.5853C30.1398 33.5507 30.7938 33.3693 31.3858 33.054C31.687 32.8988 31.9809 32.73 32.2667 32.548C32.2667 32.548 32.3656 32.4836 32.5542 32.341C32.8647 32.111 33.0556 31.9477 33.3132 31.6786C33.5041 31.4808 33.6697 31.2485 33.7962 30.984C33.9756 30.6091 34.155 29.8938 34.2286 29.2981C34.2838 28.8427 34.2677 28.5943 34.2608 28.4402C34.2516 28.1941 34.0469 27.9388 33.8238 27.8307L32.4852 27.2304C32.4852 27.2304 30.4842 26.3587 29.2606 25.8021C29.1326 25.7462 28.9954 25.7142 28.8558 25.7078C28.6984 25.6916 28.5394 25.7093 28.3895 25.7597C28.2395 25.8101 28.1021 25.892 27.9864 25.9999C27.9749 25.9953 27.8208 26.1264 26.1579 28.1412C26.0625 28.2694 25.931 28.3664 25.7803 28.4196C25.6295 28.4729 25.4663 28.48 25.3115 28.4402C25.1617 28.4 25.0149 28.3493 24.8722 28.2884C24.587 28.1688 24.4881 28.1228 24.2926 28.04C22.9726 27.4639 21.7504 26.6856 20.6701 25.7331C20.3803 25.4801 20.1112 25.2041 19.8352 24.9373C18.9304 24.0707 18.1418 23.0904 17.4892 22.0209L17.3535 21.8024C17.2561 21.6556 17.1772 21.4972 17.1189 21.3309C17.0315 20.9928 17.2592 20.7214 17.2592 20.7214C17.2592 20.7214 17.8181 20.1096 18.078 19.7784C18.331 19.4564 18.5449 19.1436 18.6829 18.9205C18.9543 18.4835 19.0394 18.035 18.8968 17.6877C18.2528 16.1145 17.5858 14.5482 16.9004 12.9934C16.7647 12.6852 16.3622 12.4644 15.9965 12.4207C15.8723 12.4069 15.7481 12.3931 15.6239 12.3839C15.315 12.3686 15.0055 12.3716 14.697 12.3931L15.1593 12.3747L15.1616 12.377Z" fill="white"/>
</svg>
